<?xml version="1.0" encoding="UTF-8"?>
<svg width="32" height="32" viewBox="0 0 32 32" xmlns="http://www.w3.org/2000/svg">
    <defs>
        <linearGradient id="bg" x1="0%" y1="0%" x2="100%" y2="100%">
            <stop offset="0%" style="stop-color:#3b82f6;stop-opacity:1" />
            <stop offset="100%" style="stop-color:#1d4ed8;stop-opacity:1" />
        </linearGradient>
    </defs>
    
    <!-- Background -->
    <rect width="32" height="32" fill="url(#bg)" rx="3.2"/>
    
    <!-- Clock circle -->
    <circle cx="16" cy="16" r="9.6" fill="none" stroke="white" stroke-width="0.64"/>
    
    <!-- Clock hands -->
    <line x1="16" y1="16" x2="16" y2="9.280000000000001" stroke="white" stroke-width="0.48" stroke-linecap="round"/>
    <line x1="16" y1="16" x2="11.2" y2="16" stroke="white" stroke-width="0.48" stroke-linecap="round"/>
    
    <!-- Center dot -->
    <circle cx="16" cy="16" r="0.32" fill="white"/>
    
    <!-- Hour markers -->
    <line x1="16" y1="7.359999999999999" x2="16" y2="6.720000000000001" stroke="white" stroke-width="0.16"/>
    <line x1="20.32" y1="8.51754051130245" x2="20.64" y2="7.96328425288041" stroke="white" stroke-width="0.16"/>
    <line x1="23.48245948869755" y1="11.68" x2="24.03671574711959" y2="11.360000000000001" stroke="white" stroke-width="0.16"/>
    <line x1="24.64" y1="16" x2="25.28" y2="16" stroke="white" stroke-width="0.16"/>
    <line x1="23.48245948869755" y1="20.32" x2="24.03671574711959" y2="20.64" stroke="white" stroke-width="0.16"/>
    <line x1="20.32" y1="23.48245948869755" x2="20.64" y2="24.03671574711959" stroke="white" stroke-width="0.16"/>
    <line x1="16" y1="24.64" x2="16" y2="25.28" stroke="white" stroke-width="0.16"/>
    <line x1="11.680000000000001" y1="23.48245948869755" x2="11.360000000000003" y2="24.03671574711959" stroke="white" stroke-width="0.16"/>
    <line x1="8.51754051130245" y1="20.32" x2="7.96328425288041" y2="20.64" stroke="white" stroke-width="0.16"/>
    <line x1="7.359999999999999" y1="16" x2="6.720000000000001" y2="16" stroke="white" stroke-width="0.16"/>
    <line x1="8.51754051130245" y1="11.68" x2="7.96328425288041" y2="11.36" stroke="white" stroke-width="0.16"/>
    <line x1="11.679999999999996" y1="8.517540511302451" x2="11.359999999999996" y2="7.9632842528804115" stroke="white" stroke-width="0.16"/>
</svg>