<?xml version="1.0" encoding="UTF-8"?>
<svg width="192" height="192" viewBox="0 0 192 192" xmlns="http://www.w3.org/2000/svg">
    <defs>
        <linearGradient id="bg" x1="0%" y1="0%" x2="100%" y2="100%">
            <stop offset="0%" style="stop-color:#3b82f6;stop-opacity:1" />
            <stop offset="100%" style="stop-color:#1d4ed8;stop-opacity:1" />
        </linearGradient>
    </defs>
    
    <!-- Background -->
    <rect width="192" height="192" fill="url(#bg)" rx="19.200000000000003"/>
    
    <!-- Clock circle -->
    <circle cx="96" cy="96" r="57.599999999999994" fill="none" stroke="white" stroke-width="3.84"/>
    
    <!-- Clock hands -->
    <line x1="96" y1="96" x2="96" y2="55.68" stroke="white" stroke-width="2.88" stroke-linecap="round"/>
    <line x1="96" y1="96" x2="67.2" y2="96" stroke="white" stroke-width="2.88" stroke-linecap="round"/>
    
    <!-- Center dot -->
    <circle cx="96" cy="96" r="1.92" fill="white"/>
    
    <!-- Hour markers -->
    <line x1="96" y1="44.160000000000004" x2="96" y2="40.32000000000001" stroke="white" stroke-width="0.96"/>
    <line x1="121.92" y1="51.105243067814705" x2="123.84" y2="47.779705517282466" stroke="white" stroke-width="0.96"/>
    <line x1="140.89475693218532" y1="70.08000000000001" x2="144.22029448271755" y2="68.16000000000001" stroke="white" stroke-width="0.96"/>
    <line x1="147.84" y1="96" x2="151.68" y2="96" stroke="white" stroke-width="0.96"/>
    <line x1="140.89475693218532" y1="121.91999999999999" x2="144.22029448271755" y2="123.83999999999999" stroke="white" stroke-width="0.96"/>
    <line x1="121.92" y1="140.8947569321853" x2="123.84" y2="144.22029448271752" stroke="white" stroke-width="0.96"/>
    <line x1="96" y1="147.84" x2="96" y2="151.68" stroke="white" stroke-width="0.96"/>
    <line x1="70.08000000000001" y1="140.89475693218532" x2="68.16000000000001" y2="144.22029448271755" stroke="white" stroke-width="0.96"/>
    <line x1="51.1052430678147" y1="121.91999999999999" x2="47.77970551728246" y2="123.83999999999999" stroke="white" stroke-width="0.96"/>
    <line x1="44.160000000000004" y1="96" x2="40.32000000000001" y2="96" stroke="white" stroke-width="0.96"/>
    <line x1="51.105243067814705" y1="70.08" x2="47.779705517282466" y2="68.16" stroke="white" stroke-width="0.96"/>
    <line x1="70.07999999999998" y1="51.10524306781471" x2="68.15999999999998" y2="47.77970551728247" stroke="white" stroke-width="0.96"/>
</svg>